<?xml version="1.0" encoding="UTF-8"?>
<svg width="48" height="48" viewBox="0 0 48 48" xmlns="http://www.w3.org/2000/svg">
  <!-- Background circle -->
  <circle cx="24" cy="24" r="22" fill="#16a085"/>
  
  <!-- Left column (Field 1) -->
  <rect x="6" y="10" width="8" height="10" fill="#3498db" rx="2"/>
  <rect x="6" y="22" width="8" height="8" fill="#3498db" rx="2"/>
  <rect x="6" y="32" width="8" height="6" fill="#3498db" rx="2"/>
  
  <!-- Middle column (Field 2) -->
  <rect x="20" y="12" width="8" height="8" fill="#e74c3c" rx="2"/>
  <rect x="20" y="22" width="8" height="12" fill="#e74c3c" rx="2"/>
  <rect x="20" y="36" width="8" height="4" fill="#e74c3c" rx="2"/>
  
  <!-- Right column (Field 3) -->
  <rect x="34" y="8" width="8" height="14" fill="#2ecc71" rx="2"/>
  <rect x="34" y="24" width="8" height="10" fill="#2ecc71" rx="2"/>
  <rect x="34" y="36" width="8" height="6" fill="#2ecc71" rx="2"/>
  
  <!-- Flow paths (simplified curved connections) -->
  <!-- Top flows -->
  <path d="M14 15 Q17 15 20 16" stroke="#ffffff" stroke-width="2" fill="none" opacity="0.6"/>
  <path d="M28 16 Q31 14 34 14" stroke="#ffffff" stroke-width="2" fill="none" opacity="0.6"/>
  
  <!-- Middle flows -->
  <path d="M14 26 Q17 28 20 28" stroke="#ffffff" stroke-width="3" fill="none" opacity="0.6"/>
  <path d="M28 28 Q31 29 34 29" stroke="#ffffff" stroke-width="3" fill="none" opacity="0.6"/>
  
  <!-- Bottom flows -->
  <path d="M14 35 Q17 38 20 38" stroke="#ffffff" stroke-width="1.5" fill="none" opacity="0.6"/>
  <path d="M28 38 Q31 39 34 39" stroke="#ffffff" stroke-width="1.5" fill="none" opacity="0.6"/>
  
  <!-- Cross flows -->
  <path d="M14 20 Q20 24 28 20" stroke="#ffffff" stroke-width="1" fill="none" opacity="0.4"/>
</svg>
